<?xml version="1.0" encoding="UTF-8" standalone="no"?><!DOCTYPE svg PUBLIC "-//W3C//DTD SVG 1.1//EN" "http://www.w3.org/Graphics/SVG/1.1/DTD/svg11.dtd"><svg width="100%" height="100%" viewBox="0 0 100 100" version="1.1" xmlns="http://www.w3.org/2000/svg" xmlns:xlink="http://www.w3.org/1999/xlink" xml:space="preserve" style="fill-rule:evenodd;clip-rule:evenodd;stroke-linejoin:round;stroke-miterlimit:1.41421;"><g><g><g><rect x="7.505" y="44.527" width="84.983" height="12.51" style="fill:#c08b3e;"/><path d="M49.951,22.635c23.452,-0.064 42.515,14.6 42.544,32.724c0.028,18.124 -18.988,32.889 -42.44,32.953c-23.452,0.063 -42.515,-14.6 -42.543,-32.725c-0.029,-18.124 18.988,-32.889 42.439,-32.952Z" style="fill:#c08b3e;"/></g><g><ellipse cx="49.997" cy="44.527" rx="42.491" ry="32.839" style="fill:#ffc900;"/><ellipse cx="49.997" cy="43.745" rx="35.31" ry="25.802" style="fill:#f5ab22;"/></g></g><g><path d="M25.082,19.48l3.668,9.915l9.915,3.669l-9.915,3.669l-3.668,9.914l-3.669,-9.914l-9.915,-3.669l9.915,-3.669l3.669,-9.915Z" style="fill:#fff;"/><path d="M62.437,12.688l2.384,6.445l6.445,2.385l-6.445,2.384l-2.384,6.445l-2.385,-6.445l-6.445,-2.384l6.445,-2.385l2.385,-6.445Z" style="fill:#fff;"/></g></g></svg>